<svg xmlns="http://www.w3.org/2000/svg" xmlns:xlink="http://www.w3.org/1999/xlink" version="1.1" x="0px" y="0px" viewBox="0 0 100 125" enable-background="new 0 0 100 100" xml:space="preserve"><g><path d="M76.73,42.433c3.526-1.407,5.25-5.45,3.84-9.021c-1.429-3.564-5.449-5.312-8.983-3.906   c-3.532,1.404-5.251,5.428-3.825,9.003C69.178,42.075,73.196,43.836,76.73,42.433"/><path d="M86.248,61.981c0.542,0.308,1.199,0.579,1.784,0.579c1.087,0,2.084-0.636,2.763-1.571l7.531-10.397   c1.135-1.563,0.783-3.756-0.778-4.881c-1.575-1.138-3.753-0.784-4.881,0.777l-5.205,7.189c0,0-6.645-6.604-9.299-8.188   c-2.999-1.319-6.438-1.401-7.689-1.353H55.058c-1.063,0-2.07,0.484-2.73,1.315l-8.083,10.142c-1.205,1.511-0.957,3.707,0.552,4.909   c0.645,0.513,1.415,0.765,2.178,0.765c1.028,0,2.046-0.45,2.734-1.316l7.037-8.826h5.802C58.3,57.232,52.441,65.779,52.459,66.355   h0.006c-0.677,1.177-0.877,2.604-0.299,3.949l3.748,8.761H38.169c-2.47,0-4.473,2.005-4.473,4.472c0,2.47,2.003,4.473,4.473,4.473   h24.526c1.502,0,2.905-0.755,3.729-2.006c0.828-1.26,0.971-2.84,0.38-4.225l-3.166-7.395h13.906l8.28,17.776   c0.764,1.631,2.377,2.586,4.062,2.586c0.627,0,1.268-0.138,1.882-0.419c2.243-1.047,3.208-3.703,2.165-5.947l-9.481-20.359   c-0.738-1.573-2.318-2.58-4.059-2.58h-8.688l7.093-10.103L86.248,61.981z"/></g><g><circle cx="2.929" cy="11.301" r="1.99"/><circle cx="9.381" cy="15.272" r="1.99"/><circle cx="15.834" cy="27.186" r="1.99"/><circle cx="15.834" cy="19.243" r="1.99"/><circle cx="22.288" cy="31.156" r="1.991"/><circle cx="22.288" cy="23.214" r="1.991"/><circle cx="67.553" cy="26.193" r="1.991"/><circle cx="67.553" cy="18.251" r="1.99"/><circle cx="74.006" cy="22.222" r="1.99"/><circle cx="80.46" cy="26.193" r="1.991"/><circle cx="86.914" cy="30.165" r="1.99"/><circle cx="86.914" cy="38.106" r="1.99"/><circle cx="67.553" cy="11.301" r="1.99"/><circle cx="74.006" cy="15.272" r="1.99"/><circle cx="74.006" cy="7.328" r="1.991"/><circle cx="80.46" cy="19.243" r="1.99"/><path d="M92.847,21.233c-1.1,0-1.989-0.891-1.989-1.99c0-1.1,0.89-1.99,1.989-1.99c1.102,0,1.991,0.89,1.991,1.99   C94.838,20.342,93.948,21.233,92.847,21.233z"/><circle cx="86.914" cy="23.214" r="1.991"/><circle cx="86.914" cy="15.272" r="1.99"/><circle cx="28.523" cy="26.193" r="1.991"/><circle cx="28.523" cy="18.251" r="1.99"/><circle cx="34.977" cy="22.222" r="1.99"/><circle cx="41.431" cy="26.193" r="1.991"/><circle cx="47.883" cy="38.106" r="1.99"/><circle cx="47.883" cy="30.165" r="1.99"/><circle cx="54.336" cy="34.135" r="1.99"/><circle cx="60.79" cy="38.106" r="1.99"/><circle cx="34.977" cy="15.272" r="1.99"/><circle cx="41.431" cy="19.243" r="1.99"/><circle cx="47.883" cy="23.214" r="1.991"/><circle cx="47.883" cy="15.272" r="1.99"/><circle cx="54.336" cy="27.186" r="1.99"/><circle cx="54.336" cy="19.243" r="1.99"/><circle cx="60.79" cy="31.156" r="1.991"/><circle cx="92.849" cy="34.135" r="1.991"/><circle cx="60.79" cy="23.214" r="1.991"/><circle cx="60.79" cy="15.272" r="1.99"/></g><text x="0" y="115" fill="#000000" font-size="5px" font-weight="bold" font-family="'Helvetica Neue', Helvetica, Arial-Unicode, Arial, Sans-serif">Created by Luis Prado</text><text x="0" y="120" fill="#000000" font-size="5px" font-weight="bold" font-family="'Helvetica Neue', Helvetica, Arial-Unicode, Arial, Sans-serif">from the Noun Project</text></svg>