<svg xmlns="http://www.w3.org/2000/svg" xmlns:xlink="http://www.w3.org/1999/xlink" version="1.1" x="0px" y="0px" viewBox="0 0 100 125" style="enable-background:new 0 0 100 100;" xml:space="preserve"><g><path d="M98.3,61.7c0-0.1,0-0.2,0-0.3c0-0.1,0-0.2,0-0.3c-0.2-7.4-2.4-13.4-6.8-17.5c-7.1-6.7-17-6.6-17.9-6.6h-5.1   c4.4-1,8.1-4.2,11.1-7.5c3.9-4.5,6.4-10.3,7.3-17c0.7-5,0.2-8.9,0.2-9L86.9,2h-1.3C71,2,60.5,6.1,54.4,13.8   c-1.8,2.3-3.2,5.1-4.2,8.1c-1-3-2.4-5.8-4.2-8.1C39.8,6.1,29.3,2,14.7,2h-1.3l-0.2,1.5c0,0.2-0.5,4,0.2,9   c0.9,6.7,3.4,12.5,7.3,16.9c2.9,3.4,6.6,6.6,11.1,7.6h-4.3c-0.7,0-10.6,0-17.6,6.7C5.5,47.9,3.3,54,3.3,61.4   c0,7.5,2.2,13.5,6.5,17.7c5.6,5.5,13,6.6,16.1,6.8c0,1.3-0.3,3.3-1.6,4.9c-1.5,1.8-4.1,2.7-7.6,2.7c-0.9,0-1.5,0.7-1.5,1.5   c0,0.9,0.7,1.5,1.5,1.5c4.5,0,7.8-1.3,9.9-3.8C28.6,90.6,29,88,29,86h8.7c-0.1,1-0.6,3.5-2.1,5.2c-1.6,1.7-4,2.6-7.2,2.6   c-0.9,0-1.5,0.7-1.5,1.5s0.7,1.5,1.5,1.5c4.1,0,7.3-1.2,9.5-3.6c2.2-2.4,2.7-5.2,2.9-7.2H49c0.1,1,0,3.2-1.3,4.8   c-1.4,1.7-3.8,2.6-7.2,2.6c-0.9,0-1.5,0.7-1.5,1.5c0,0.9,0.7,1.5,1.5,1.5c4.4,0,7.6-1.3,9.6-3.7c1.9-2.3,2.1-4.7,2-6.7h9   c0,1-0.3,3.2-1.5,4.7c-1.4,1.7-3.9,2.6-7.4,2.6c-0.9,0-1.5,0.7-1.5,1.5c0,0.9,0.7,1.5,1.5,1.5c4.4,0,7.7-1.3,9.8-3.7   c1.9-2.2,2.2-4.6,2.2-6.6h9.4c0.1,0,0.3,0,0.6,0c2.4,0,11-0.4,17.3-6.4c4.3-4.1,6.6-9.9,6.8-17.3c0-0.1,0-0.2,0-0.3   C98.3,61.9,98.3,61.8,98.3,61.7z M29,83V40h9v43H29z M41,40h8v43h-8V40z M52,40h9v43h-9V40z M56.8,15.9C62.1,9.2,71.3,5.7,84.2,5.4   c0.1,1.4,0.1,3.9-0.3,6.8c-0.6,4.2-2.2,10.3-6.6,15.4c-5.5,6.2-13.9,9.5-25.2,9.7c-0.1-0.9-0.3-2.2-0.4-3.8c0-0.8,0-1.7,0-2.7   c0,0,0-0.1,0-0.1C51.9,26.7,52.9,20.9,56.8,15.9z M23,27.7c-4.4-5-6-11.1-6.6-15.4C16,9.4,16,6.9,16.1,5.4   C29,5.7,38.2,9.2,43.5,15.9c3.9,5,4.9,10.8,5.1,14.9c0,0,0,0.1,0,0.1c0,0.9,0,1.8,0,2.7c-0.1,1.6-0.2,3-0.4,3.8   C36.9,37.1,28.5,33.9,23,27.7z M6.4,61.5c0-6.6,2-11.7,5.7-15.3c4.6-4.5,11-5.4,14-5.6v42.4c-3-0.2-9.3-1.3-13.9-5.9   C8.3,73.3,6.4,68.1,6.4,61.5z M89.4,77.4c-6.3,6-15.6,5.6-15.6,5.6l0,0H64V40l9.7,0.2l0,0c0.1,0,9.4-0.3,15.6,5.7   c3.8,3.6,5.8,9,5.8,15.7C95.1,68.4,93.2,73.8,89.4,77.4z"/><path d="M80,52.9c-1.4,0-2.7,1.2-2.7,2.7c0.1,1.4,1.2,2.7,2.7,2.7c1.4,0,2.7-1.2,2.7-2.7C82.6,54.2,81.5,52.9,80,52.9z"/></g><text x="0" y="115" fill="#000000" font-size="5px" font-weight="bold" font-family="'Helvetica Neue', Helvetica, Arial-Unicode, Arial, Sans-serif">Created by Paula Marini</text><text x="0" y="120" fill="#000000" font-size="5px" font-weight="bold" font-family="'Helvetica Neue', Helvetica, Arial-Unicode, Arial, Sans-serif">from the Noun Project</text></svg>